<svg width="14" height="14" viewBox="0 0 14 14" xmlns="http://www.w3.org/2000/svg"><path d="M13.877 6.781c.036.028.061.06.075.096a.348.348 0 0 1 0 .24.209.209 0 0 1-.075.102l-.123.123-1.736 1.572a.316.316 0 0 1-.233.096.316.316 0 0 1-.232-.096l-.082-.11a.249.249 0 0 1-.075-.225.34.34 0 0 1 .116-.212l1.052-.943h-5.1v5.113l.944-1.053a.397.397 0 0 1 .219-.116.24.24 0 0 1 .219.075l.11.082a.316.316 0 0 1 .095.233.316.316 0 0 1-.096.232l-1.613 1.764-.123.123a.214.214 0 0 1-.096.075.348.348 0 0 1-.24 0 .209.209 0 0 1-.102-.075l-.123-.123-1.572-1.736a.316.316 0 0 1-.096-.233c0-.091.032-.168.096-.232l.11-.082a.249.249 0 0 1 .225-.075.34.34 0 0 1 .212.116l.943 1.052v-5.14H1.395l1.066.943a.34.34 0 0 1 .116.212.249.249 0 0 1-.075.226l-.082.11a.316.316 0 0 1-.232.095.316.316 0 0 1-.233-.096L.22 7.342l-.123-.123a.209.209 0 0 1-.075-.103.368.368 0 0 1 0-.239.214.214 0 0 1 .075-.096.356.356 0 0 1 .089-.123.503.503 0 0 1 .102-.068l1.695-1.545a.316.316 0 0 1 .233-.096c.091 0 .168.032.232.096l.082.11a.24.24 0 0 1 .075.218.397.397 0 0 1-.116.219l-1.052.943h5.14V1.408l-.943 1.053a.34.34 0 0 1-.212.116.249.249 0 0 1-.226-.075l-.11-.082a.316.316 0 0 1-.095-.232c0-.092.032-.17.096-.233L6.658.22l.123-.123A.209.209 0 0 1 6.884.02a.368.368 0 0 1 .239 0 .214.214 0 0 1 .096.075.356.356 0 0 1 .123.089c.027.031.05.066.068.102l1.545 1.695a.316.316 0 0 1 .096.233.316.316 0 0 1-.096.232l-.11.082a.24.24 0 0 1-.218.075.397.397 0 0 1-.219-.116l-.957-1.052v5.113h5.086l-1.053-.957a.397.397 0 0 1-.116-.219.24.24 0 0 1 .075-.219l.082-.11a.316.316 0 0 1 .233-.095c.091 0 .168.032.232.096l1.764 1.613.123.123z" fill="#A6BEDC" fill-rule="evenodd"/></svg>
